PathFileType	4	(X/Y/Z)	C:\Users\xlb\Desktop\20210112\20210112\bx_n_10_902.trc
DataRate	CameraRate	NumFrames	NumMarkers	Units	OrigDataRate	OrigDataStartFrame	OrigNumFrames
50.00	50.00	       4	43	mm	50.00	243	       484
Frame#	Time	Top.Head			R.Acromium			L.Acromium			Sternum			R.ASIS			L.ASIS			V.Sacral			R.Thigh.Upper			R.Thigh.Front			R.Thigh.Rear			R.Knee.Lat			R.Knee.Med			R.Shank.Upper			R.Shank.Front			R.Shank.Rear			R.Ankle.Lat			R.Midfoot.Lat			R.Toe.Lat			R.Toe.Tip			R.Toe.Med			R.Ankle.Med			R.Midfoot.Sup			R.Heel			L.Thigh.Upper			L.Thigh.Front			L.Thigh.Rear			L.Knee.Lat			L.Knee.Med			L.Shank.Upper			L.Shank.Front			L.Shank.Rear			L.Ankle.Lat			L.Midfoot.Lat			L.Toe.Lat			L.Toe.Tip			L.Toe.Med			L.Ankle.Med			L.Midfoot.Sup			L.Heel			origin1 front left			origin2 front right			origin 3 back right			origin 4 back leftt			
		X1	Y1	Z1	X2	Y2	Z2	X3	Y3	Z3	X4	Y4	Z4	X5	Y5	Z5	X6	Y6	Z6	X7	Y7	Z7	X8	Y8	Z8	X9	Y9	Z9	X10	Y10	Z10	X11	Y11	Z11	X12	Y12	Z12	X13	Y13	Z13	X14	Y14	Z14	X15	Y15	Z15	X16	Y16	Z16	X17	Y17	Z17	X18	Y18	Z18	X19	Y19	Z19	X20	Y20	Z20	X21	Y21	Z21	X22	Y22	Z22	X23	Y23	Z23	X24	Y24	Z24	X25	Y25	Z25	X26	Y26	Z26	X27	Y27	Z27	X28	Y28	Z28	X29	Y29	Z29	X30	Y30	Z30	X31	Y31	Z31	X32	Y32	Z32	X33	Y33	Z33	X34	Y34	Z34	X35	Y35	Z35	X36	Y36	Z36	X37	Y37	Z37	X38	Y38	Z38	X39	Y39	Z39	X40	Y40	Z40	X41	Y41	Z41	X42	Y42	Z42	X43	Y43	Z43	

243	4.840	-684.53857	107.24239	1845.54590	-686.24420	-72.53827	1544.37305	-683.33350	274.33984	1547.55603	-598.64581	99.59007	1349.73584	-586.99237	8.15754	1079.36328	-620.78156	232.47470	1067.86145	-815.59540	88.59253	1060.50903	-681.90625	-73.63371	875.26312	-601.15112	-16.31216	805.59625	-702.93378	-62.83331	760.33032	-722.41510	-38.08247	619.13007	-701.72662	69.87218	573.41534	-730.06812	-35.28738	569.71051	-673.97650	12.55928	521.72266	-771.77997	-44.45314	488.28824	-758.71039	-16.32402	206.37184	-650.09125	-69.20870	160.42700	-607.84760	-76.96085	156.68681	-547.22632	-30.67616	162.65106	-595.72589	23.69286	169.10913	-714.16052	70.40568	218.62048	-669.11957	53.44550	160.97382	-789.46265	44.10501	173.71761	-706.48523	275.51352	877.22803	-600.45703	214.03784	817.46014	-712.63263	265.51535	746.79175	-740.18427	247.83621	644.23993	-700.87555	142.89168	576.31903	-740.97937	244.83699	577.61365	-685.54559	205.55061	536.76172	-778.86432	255.43593	502.92523	-767.15509	227.42879	205.36504	-659.31812	299.28818	157.18806	-622.96948	308.01016	157.69440	-554.89911	257.44089	163.84624	-590.90515	220.23859	173.75482	-711.25958	154.30493	218.06580	-673.79926	173.32854	158.69402	-794.57983	178.16858	183.24094	-528.13165	304.14130	146.57776	-517.71936	-73.03423	143.26262	-875.91003	-78.73737	141.27022	-882.49341	296.13165	144.67570	
244	4.860	-680.54169	106.93474	1845.44043	-684.69098	-72.93186	1544.33484	-681.61169	274.01996	1547.43042	-598.34991	99.24464	1349.03406	-588.75262	8.02381	1078.69714	-622.87988	232.83673	1067.23303	-817.09302	88.41375	1060.75891	-683.35553	-73.68222	875.20935	-602.53009	-16.37979	805.70007	-704.16779	-62.94359	760.38800	-723.16675	-38.30838	619.15955	-702.68323	69.80663	573.32166	-730.94141	-35.34817	569.65161	-674.70441	12.57918	521.80084	-772.38214	-44.51356	488.17001	-758.71393	-16.34319	206.26961	-650.06079	-69.18459	160.39780	-607.84650	-76.97131	156.68376	-547.24945	-30.68683	162.67145	-595.71948	23.66188	169.10120	-714.25946	70.36179	218.73538	-669.11218	53.42467	161.03442	-789.47729	44.08930	173.71335	-708.03149	275.41608	877.29547	-601.92157	214.01903	817.52728	-713.97888	265.45856	746.77808	-741.29669	247.78470	644.14502	-701.70551	142.81998	576.22961	-741.87756	244.82852	577.42639	-686.32190	205.53329	536.76855	-779.62848	255.36482	502.78912	-767.22272	227.50250	205.24733	-659.32983	299.29929	157.18300	-622.95551	308.02338	157.69090	-555.00769	257.42233	163.89316	-590.97992	220.25911	173.82211	-711.38184	154.34785	218.04274	-673.74933	173.36156	158.79501	-794.59686	178.18524	183.18739	-528.12787	304.16513	146.63139	-517.69464	-73.03830	143.32596	-875.92517	-78.72301	141.27919	-882.46118	296.09085	144.67528	
245	4.880	-676.32159	106.68508	1845.22974	-682.96326	-73.29616	1544.22961	-679.63232	273.81985	1547.26428	-598.03455	98.86549	1348.28162	-590.66479	7.83444	1077.98145	-624.76843	233.13855	1066.88135	-818.64105	88.21820	1060.99646	-684.87134	-73.77556	875.17212	-603.93628	-16.49955	805.79388	-705.44171	-63.06417	760.42944	-724.08722	-38.45675	619.04724	-703.66064	69.73143	573.31055	-731.84821	-35.40442	569.63971	-675.45038	12.57948	521.90118	-772.99316	-44.56670	488.02084	-758.74603	-16.37066	206.14668	-650.01080	-69.16994	160.36789	-607.84576	-76.98049	156.68073	-547.26886	-30.68010	162.67230	-595.69568	23.64413	169.09975	-714.36865	70.34860	218.81146	-669.11462	53.40469	161.06662	-789.47736	44.08659	173.69891	-709.57813	275.29068	877.32147	-603.43750	213.91577	817.62482	-715.32190	265.33359	746.75110	-742.40363	247.71170	644.04376	-702.55579	142.74564	576.20239	-742.77179	244.83113	577.25000	-687.13562	205.49867	536.77686	-780.38464	255.29933	502.60126	-767.30835	227.56685	205.16289	-659.35052	299.32703	157.17500	-622.93439	308.04849	157.70322	-555.09998	257.43262	163.96646	-591.07159	220.29964	173.92096	-711.55566	154.38853	217.99538	-673.70532	173.44649	158.91177	-794.62506	178.22350	183.15843	-528.12042	304.19397	146.68228	-517.67126	-73.04179	143.38248	-875.93494	-78.69231	141.31715	-882.45172	296.07578	144.68826	
246	4.900	-671.89435	106.49261	1844.93713	-681.01129	-73.62807	1544.05493	-677.38446	273.67593	1547.04712	-597.71234	98.46127	1347.45349	-592.73083	7.58755	1077.21533	-626.38910	233.33548	1066.85291	-820.28607	88.05949	1061.25378	-686.50128	-73.94362	875.18811	-605.41614	-16.67016	805.88043	-706.80481	-63.21658	760.41479	-725.12775	-38.62047	618.91388	-704.66980	69.60918	573.33942	-732.80188	-35.47515	569.64343	-676.22546	12.55031	521.97607	-773.69165	-44.64645	487.84073	-758.81641	-16.42627	206.04547	-649.96625	-69.17090	160.34729	-607.84338	-76.98987	156.67992	-547.28247	-30.65933	162.67490	-595.68127	23.64793	169.11031	-714.46191	70.34608	218.88200	-669.12524	53.38970	161.07138	-789.47162	44.09422	173.67477	-711.15503	275.17441	877.32349	-604.98138	213.76077	817.75946	-716.67810	265.20822	746.72583	-743.50787	247.66331	643.96429	-703.47162	142.72293	576.25763	-743.70142	244.85109	577.16742	-687.99023	205.47919	536.81232	-781.16528	255.28534	502.41165	-767.41040	227.62938	205.09242	-659.35388	299.38727	157.16278	-622.91949	308.08606	157.72862	-555.16486	257.44754	164.04169	-591.15887	220.35867	174.01750	-711.72339	154.46477	217.97241	-673.63757	173.55388	159.02914	-794.70447	178.32431	183.15295	-528.11487	304.21158	146.69217	-517.65338	-73.03251	143.41286	-875.94116	-78.67532	141.37077	-882.45166	296.08344	144.70171	
